<?xml version="1.0" encoding="UTF-8" standalone="no"?>
<svg
   xmlns:dc="http://purl.org/dc/elements/1.1/"
   xmlns:cc="http://creativecommons.org/ns#"
   xmlns:rdf="http://www.w3.org/1999/02/22-rdf-syntax-ns#"
   xmlns:svg="http://www.w3.org/2000/svg"
   xmlns="http://www.w3.org/2000/svg"
   xmlns:sodipodi="http://sodipodi.sourceforge.net/DTD/sodipodi-0.dtd"
   xmlns:inkscape="http://www.inkscape.org/namespaces/inkscape"
   width="64"
   height="64"
   viewBox="0 0 16.933333 16.933334"
   version="1.1"
   id="svg1073"
   inkscape:version="1.0.1 (0767f8302a, 2020-10-17)"
   sodipodi:docname="qaddapp_icon.svg">
  <defs
     id="defs1067" />
  <sodipodi:namedview
     id="base"
     pagecolor="#ffffff"
     bordercolor="#666666"
     borderopacity="1.0"
     inkscape:pageopacity="0.0"
     inkscape:pageshadow="2"
     inkscape:zoom="7.9195959"
     inkscape:cx="44.993249"
     inkscape:cy="26.465768"
     inkscape:document-units="px"
     inkscape:current-layer="layer1"
     inkscape:document-rotation="0"
     showgrid="false"
     units="px"
     inkscape:pagecheckerboard="true"
     inkscape:snap-page="true"
     inkscape:window-width="1920"
     inkscape:window-height="1024"
     inkscape:window-x="0"
     inkscape:window-y="27"
     inkscape:window-maximized="1" />
  <metadata
     id="metadata1070">
    <rdf:RDF>
      <cc:Work
         rdf:about="">
        <dc:format>image/svg+xml</dc:format>
        <dc:type
           rdf:resource="http://purl.org/dc/dcmitype/StillImage" />
        <dc:title></dc:title>
      </cc:Work>
    </rdf:RDF>
  </metadata>
  <g
     inkscape:label="Layer 1"
     inkscape:groupmode="layer"
     id="layer1">
    <path
       id="path839"
       style="fill:#ffffff;fill-opacity:1;stroke:none;stroke-width:8.03565;stroke-linecap:butt;stroke-linejoin:round;stroke-miterlimit:4;stroke-dasharray:none;stroke-dashoffset:0;stroke-opacity:1"
       d="M 32 0 A 32.000002 32.000002 0 0 0 0 32 A 32.000002 32.000002 0 0 0 32 64 A 32.000002 32.000002 0 0 0 64 32 A 32.000002 32.000002 0 0 0 32 0 z M 32 11.519531 C 34.12736 11.519531 35.839844 13.232015 35.839844 15.359375 L 35.839844 28.160156 L 48.640625 28.160156 C 50.767985 28.160156 52.480469 29.87264 52.480469 32 C 52.480469 34.12736 50.767985 35.839844 48.640625 35.839844 L 35.839844 35.839844 L 35.839844 48.640625 C 35.839844 50.767985 34.12736 52.480469 32 52.480469 C 29.87264 52.480469 28.160156 50.767985 28.160156 48.640625 L 28.160156 35.839844 L 15.359375 35.839844 C 13.232015 35.839844 11.519531 34.12736 11.519531 32 C 11.519531 29.87264 13.232015 28.160156 15.359375 28.160156 L 28.160156 28.160156 L 28.160156 15.359375 C 28.160156 13.232015 29.87264 11.519531 32 11.519531 z "
       transform="scale(0.26458334)"
       inkscape:export-xdpi="96"
       inkscape:export-ydpi="96" />
  </g>
</svg>
